<svg width="400" height="400" viewBox="0 0 500 500" fill="none" xmlns="http://www.w3.org/2000/svg">
<path d="M250 487.32C379.698 487.32 484.84 426.614 484.84 351.73C484.84 276.846 379.698 216.14 250 216.14C120.301 216.14 15.1599 276.846 15.1599 351.73C15.1599 426.614 120.301 487.32 250 487.32Z" fill="#F5F5F5"/>
<path d="M349.18 280.74L150.82 395.24C149.189 396.181 147.338 396.676 145.455 396.676C143.572 396.676 141.721 396.181 140.09 395.24L129.62 389.24C129.032 388.901 128.544 388.414 128.204 387.827C127.865 387.24 127.686 386.573 127.686 385.895C127.686 385.217 127.865 384.55 128.204 383.963C128.544 383.376 129.032 382.888 129.62 382.55L328 268C329.63 267.061 331.479 266.567 333.36 266.567C335.241 266.567 337.09 267.061 338.72 268L349.19 274.05C349.775 274.391 350.26 274.88 350.596 275.468C350.933 276.055 351.11 276.721 351.109 277.398C351.108 278.075 350.929 278.74 350.591 279.326C350.252 279.913 349.766 280.4 349.18 280.74Z" fill="#E0E0E0"/>
<path d="M318.78 409.18C342.335 409.18 361.43 398.157 361.43 384.56C361.43 370.963 342.335 359.94 318.78 359.94C295.225 359.94 276.13 370.963 276.13 384.56C276.13 398.157 295.225 409.18 318.78 409.18Z" fill="#E0E0E0"/>
<path d="M401.36 316.02C419.801 316.02 434.75 307.388 434.75 296.74C434.75 286.092 419.801 277.46 401.36 277.46C382.919 277.46 367.97 286.092 367.97 296.74C367.97 307.388 382.919 316.02 401.36 316.02Z" fill="#E0E0E0"/>
<path d="M98.92 436.41C117.361 436.41 132.31 427.778 132.31 417.13C132.31 406.482 117.361 397.85 98.92 397.85C80.4792 397.85 65.53 406.482 65.53 417.13C65.53 427.778 80.4792 436.41 98.92 436.41Z" fill="#E0E0E0"/>
<path d="M137.76 162.35L339 46.18C341.31 44.85 343.38 44.95 344.85 46.18L351.85 51L347 56.86V219.11C347 225.06 343.39 231.96 338.93 234.54L139.73 349.54L139.36 355.87L132.02 350.87C130.56 349.77 129.66 347.6 129.66 344.63V177.77C129.69 171.82 133.3 164.92 137.76 162.35Z" fill="#437CFD"/>
<path opacity="0.4" d="M137.76 162.35L339 46.18C341.31 44.85 343.38 44.95 344.85 46.18L351.85 51L347 56.86V219.11C347 225.06 343.39 231.96 338.93 234.54L139.73 349.54L139.36 355.87L132.02 350.87C130.56 349.77 129.66 347.6 129.66 344.63V177.77C129.69 171.82 133.3 164.92 137.76 162.35Z" fill="white"/>
<path d="M136.54 349.31V182.48C136.626 179.107 137.558 175.809 139.25 172.89L132.06 168.77C130.576 171.543 129.764 174.626 129.69 177.77V344.6C129.69 347.6 130.59 349.74 132.05 350.84L138.81 355.47C137.41 354.35 136.54 352.22 136.54 349.31Z" fill="#437CFD"/>
<path opacity="0.2" d="M136.54 349.31V182.48C136.626 179.107 137.558 175.809 139.25 172.89L132.06 168.77C130.576 171.543 129.764 174.626 129.69 177.77V344.6C129.69 347.6 130.59 349.74 132.05 350.84L138.81 355.47C137.41 354.35 136.54 352.22 136.54 349.31Z" fill="white"/>
<path d="M144.61 355.42L345.81 239.25C350.27 236.68 353.88 229.77 353.88 223.83V57C353.88 51.06 350.27 48.33 345.81 50.9L144.61 167.06C140.15 169.64 136.54 176.54 136.54 182.48V349.31C136.54 355.26 140.15 358 144.61 355.42Z" fill="#437CFD"/>
<path d="M144.61 355.42L345.81 239.25C350.27 236.68 353.88 229.77 353.88 223.83V57C353.88 51.06 350.27 48.33 345.81 50.9L144.61 167.06C140.15 169.64 136.54 176.54 136.54 182.48V349.31C136.54 355.26 140.15 358 144.61 355.42Z" fill="#437CFD"/>
<path opacity="0.7" d="M144.61 355.42L345.81 239.25C350.27 236.68 353.88 229.77 353.88 223.83V57C353.88 51.06 350.27 48.33 345.81 50.9L144.61 167.06C140.15 169.64 136.54 176.54 136.54 182.48V349.31C136.54 355.26 140.15 358 144.61 355.42Z" fill="white"/>
<path d="M144.61 167.06L345.81 50.9C350.27 48.33 353.88 51.06 353.88 57V65.16L136.54 190.64V182.48C136.54 176.54 140.15 169.64 144.61 167.06Z" fill="#437CFD"/>
<path opacity="0.5" d="M144.61 167.06L345.81 50.9C350.27 48.33 353.88 51.06 353.88 57V65.16L136.54 190.64V182.48C136.54 176.54 140.15 169.64 144.61 167.06Z" fill="white"/>
<path d="M349 50.72C351.47 50.72 353.08 53.19 353.08 57V223.83C353.08 229.51 349.63 236.13 345.4 238.57L144.22 354.73C143.377 355.264 142.407 355.564 141.41 355.6C138.93 355.6 137.33 353.13 137.33 349.31V182.48C137.33 176.8 140.77 170.19 145.01 167.74L346.21 51.58C347.055 51.0518 348.024 50.7552 349.02 50.72M349.02 49.93C347.88 49.9737 346.773 50.3187 345.81 50.93L144.61 167.06C140.15 169.64 136.54 176.54 136.54 182.48V349.31C136.54 353.74 138.54 356.38 141.41 356.38C142.546 356.331 143.649 355.987 144.61 355.38L345.81 239.21C350.27 236.64 353.88 229.73 353.88 223.79V57C353.88 52.58 351.88 49.93 349.02 49.93Z" fill="#437CFD"/>
<path d="M154.65 310.51C154.187 310.511 153.737 310.358 153.37 310.077C153.003 309.795 152.739 309.4 152.619 308.953C152.5 308.506 152.531 308.032 152.708 307.605C152.886 307.178 153.199 306.821 153.6 306.59L214 271.72C214.239 271.564 214.507 271.458 214.788 271.409C215.07 271.36 215.358 271.368 215.636 271.434C215.913 271.5 216.175 271.622 216.404 271.793C216.633 271.963 216.825 272.179 216.968 272.426C217.11 272.673 217.202 272.946 217.235 273.23C217.269 273.513 217.244 273.801 217.163 274.075C217.082 274.348 216.946 274.602 216.763 274.822C216.58 275.041 216.355 275.221 216.1 275.35L155.7 310.22C155.384 310.412 155.02 310.512 154.65 310.51Z" fill="#FAFAFA"/>
<path d="M154.65 323.67C154.186 323.675 153.734 323.526 153.364 323.245C152.995 322.965 152.729 322.57 152.609 322.122C152.488 321.674 152.521 321.199 152.7 320.771C152.879 320.344 153.196 319.988 153.6 319.76L239.6 270.08C239.839 269.942 240.103 269.853 240.376 269.817C240.65 269.781 240.928 269.799 241.194 269.871C241.461 269.942 241.711 270.065 241.93 270.233C242.148 270.401 242.332 270.611 242.47 270.85C242.608 271.089 242.697 271.353 242.733 271.626C242.769 271.9 242.751 272.178 242.679 272.444C242.608 272.711 242.485 272.961 242.317 273.18C242.148 273.399 241.939 273.582 241.7 273.72L155.7 323.39C155.381 323.574 155.019 323.671 154.65 323.67Z" fill="#FAFAFA"/>
<path d="M250.19 281.68C249.726 281.685 249.274 281.536 248.904 281.255C248.535 280.975 248.269 280.58 248.149 280.132C248.029 279.684 248.061 279.209 248.24 278.781C248.42 278.354 248.736 277.998 249.14 277.77L308.65 243.41C308.889 243.254 309.157 243.148 309.438 243.099C309.72 243.05 310.008 243.058 310.286 243.124C310.563 243.19 310.825 243.312 311.054 243.483C311.283 243.653 311.475 243.869 311.617 244.116C311.76 244.363 311.851 244.636 311.885 244.92C311.919 245.203 311.894 245.491 311.813 245.765C311.732 246.038 311.596 246.292 311.413 246.512C311.23 246.731 311.005 246.911 310.75 247.04L251.23 281.4C250.914 281.583 250.555 281.68 250.19 281.68Z" fill="#FAFAFA"/>
<path d="M154.65 336.84C154.187 336.841 153.737 336.688 153.37 336.407C153.003 336.125 152.739 335.73 152.619 335.283C152.5 334.836 152.531 334.362 152.708 333.935C152.886 333.508 153.199 333.151 153.6 332.92L230.37 288.6C230.853 288.322 231.426 288.246 231.965 288.391C232.503 288.535 232.962 288.887 233.24 289.37C233.519 289.853 233.594 290.426 233.449 290.964C233.305 291.503 232.953 291.962 232.47 292.24L155.7 336.56C155.381 336.744 155.019 336.841 154.65 336.84Z" fill="#FAFAFA"/>
<path d="M154.65 201.19C154.187 201.191 153.737 201.038 153.37 200.757C153.003 200.475 152.739 200.08 152.619 199.633C152.5 199.186 152.531 198.712 152.708 198.285C152.886 197.858 153.199 197.501 153.6 197.27L214 162.4C214.239 162.244 214.507 162.138 214.788 162.089C215.07 162.039 215.358 162.048 215.636 162.114C215.913 162.18 216.175 162.302 216.404 162.473C216.633 162.643 216.825 162.859 216.968 163.106C217.11 163.353 217.202 163.626 217.235 163.91C217.269 164.193 217.244 164.481 217.163 164.755C217.082 165.028 216.946 165.282 216.763 165.502C216.58 165.721 216.355 165.901 216.1 166.03L155.7 200.91C155.381 201.094 155.019 201.191 154.65 201.19Z" fill="#FAFAFA"/>
<path d="M154.65 214.36C154.187 214.361 153.737 214.208 153.37 213.927C153.003 213.645 152.739 213.25 152.619 212.803C152.5 212.356 152.531 211.882 152.708 211.455C152.886 211.028 153.199 210.671 153.6 210.44L239.6 160.77C239.839 160.614 240.107 160.508 240.388 160.459C240.67 160.41 240.958 160.418 241.236 160.484C241.513 160.55 241.775 160.672 242.004 160.843C242.233 161.013 242.425 161.229 242.568 161.476C242.71 161.723 242.802 161.996 242.835 162.28C242.869 162.563 242.844 162.851 242.763 163.125C242.682 163.398 242.546 163.652 242.363 163.872C242.18 164.091 241.955 164.271 241.7 164.4L155.7 214.07C155.384 214.262 155.02 214.362 154.65 214.36Z" fill="#FAFAFA"/>
<path d="M250.19 172.37C249.727 172.371 249.277 172.218 248.91 171.937C248.543 171.655 248.279 171.26 248.159 170.813C248.039 170.366 248.071 169.892 248.248 169.465C248.425 169.038 248.739 168.681 249.14 168.45L308.65 134.09C308.889 133.934 309.157 133.828 309.438 133.779C309.72 133.729 310.008 133.738 310.286 133.804C310.563 133.87 310.825 133.992 311.054 134.163C311.283 134.333 311.474 134.549 311.617 134.796C311.76 135.043 311.851 135.316 311.885 135.6C311.919 135.883 311.894 136.171 311.813 136.445C311.732 136.718 311.596 136.972 311.413 137.192C311.23 137.411 311.005 137.591 310.75 137.72L251.23 172.08C250.916 172.27 250.557 172.37 250.19 172.37Z" fill="#FAFAFA"/>
<path d="M154.65 227.52C154.186 227.525 153.734 227.376 153.364 227.095C152.995 226.815 152.729 226.42 152.609 225.972C152.488 225.524 152.521 225.049 152.7 224.621C152.879 224.194 153.196 223.838 153.6 223.61L230.37 179.29C230.849 179.047 231.403 178.997 231.917 179.149C232.432 179.302 232.869 179.646 233.138 180.111C233.407 180.576 233.488 181.126 233.363 181.649C233.239 182.171 232.919 182.626 232.47 182.92L155.7 227.24C155.381 227.424 155.019 227.521 154.65 227.52Z" fill="#FAFAFA"/>
<path d="M153.67 172.14C153.617 173.186 153.317 174.205 152.796 175.114C152.275 176.023 151.546 176.796 150.67 177.37C149 178.37 147.67 177.55 147.67 175.63C147.724 174.584 148.023 173.565 148.544 172.656C149.066 171.747 149.794 170.974 150.67 170.4C152.32 169.43 153.67 170.21 153.67 172.14Z" fill="white"/>
<path d="M164.32 166C164.267 167.046 163.967 168.065 163.446 168.974C162.925 169.883 162.196 170.656 161.32 171.23C159.65 172.23 158.32 171.41 158.32 169.49C158.374 168.444 158.673 167.425 159.194 166.516C159.716 165.607 160.444 164.834 161.32 164.26C163 163.28 164.32 164.06 164.32 166Z" fill="white"/>
<path d="M175 159.84C174.947 160.886 174.647 161.905 174.126 162.814C173.604 163.723 172.876 164.496 172 165.07C170.33 166.07 169 165.25 169 163.33C169.053 162.284 169.353 161.265 169.874 160.356C170.396 159.447 171.124 158.674 172 158.1C173.62 157.13 175 157.91 175 159.84Z" fill="white"/>
<path d="M196.15 213.25L191.86 211.39V166.92L196.15 168.78V213.25Z" fill="#437CFD"/>
<path opacity="0.6" d="M196.15 213.25L191.86 211.39V166.92L196.15 168.78V213.25Z" fill="black"/>
<path d="M370.64 67.82L196.15 168.78L191.86 166.92L366.34 65.97L370.64 67.82Z" fill="#437CFD"/>
<path opacity="0.4" d="M370.64 67.82L196.15 168.78L191.86 166.92L366.34 65.97L370.64 67.82Z" fill="black"/>
<path d="M370.64 112.29L196.15 213.25V168.78L370.64 67.82V112.29Z" fill="#437CFD"/>
<path opacity="0.3" d="M370.64 112.29L196.15 213.25V168.78L370.64 67.82V112.29Z" fill="black"/>
<path d="M267.95 135.698L261.586 166.624L258.047 168.658L264.411 137.732L267.95 135.698Z" fill="white"/>
<path d="M416.83 181.68L420.29 185.81C420.719 189.614 421.536 193.363 422.73 197C424.73 203.45 424.39 206.18 424.39 206.18L431.73 205.61L428.8 182.61C428.599 181.072 428.07 179.596 427.25 178.28L425.47 175.41L416.83 181.68Z" fill="#945959"/>
<path d="M420.85 298.17C420.85 298.17 416.24 301.76 416.68 303.88C417.12 306 424.31 307.01 427.8 302.88C429.35 301.05 430.45 297.32 430.59 292.77C430.66 290.5 433.52 287.14 430.59 284.77C427.66 282.4 426.49 281.84 425.76 282.14C425.03 282.44 420.85 298.17 420.85 298.17Z" fill="#37474F"/>
<path d="M417.41 280.82L420.12 286.6C420.12 286.6 421 294.95 420.85 298.17C420.85 298.17 425.03 300.73 426.27 295.88C426.746 293.578 426.968 291.23 426.93 288.88C426.473 287.255 426.28 285.566 426.36 283.88C426.43 283.359 426.4 282.829 426.27 282.32L425.03 277.22L417.41 280.82Z" fill="#945959"/>
<path d="M379.84 290.36C379.84 290.36 378.17 291.48 377 292.31C375.83 293.14 370.93 297.21 377.78 298.46C379.488 298.704 381.229 298.554 382.871 298.022C384.512 297.49 386.01 296.59 387.25 295.39C390.62 292.07 393.06 293.1 394.25 291.78C395.44 290.46 394.57 283.09 392.9 283.43L379.84 290.36Z" fill="#37474F"/>
<path d="M385.54 277.38L386.07 282.15C386.113 282.556 386.047 282.967 385.88 283.34C385.39 284.39 383.97 286.68 379.88 290.34C379.88 290.34 379.81 294.03 384.99 292.25C386.404 291.589 387.744 290.781 388.99 289.84C389.595 289.411 390.094 288.85 390.45 288.2C391.066 287.022 391.878 285.957 392.85 285.05L393.39 277.36L385.54 277.38Z" fill="#945959"/>
<path d="M381 196.62C381 196.62 379.56 203.77 379.86 217.34C380.05 226.46 380.24 233.28 380.33 236.78C380.378 238.517 380.522 240.249 380.76 241.97L385.52 277.38C386.723 278.017 388.064 278.349 389.425 278.349C390.786 278.349 392.127 278.017 393.33 277.38C393.33 277.38 394.01 269.57 394.79 265.47C395.49 261.84 396.41 251.23 394.57 245.67C394.054 244.056 393.923 242.343 394.19 240.67L399.6 205L381 196.62Z" fill="#455A64"/>
<path d="M384.7 204.82C385.309 206.431 386.246 207.898 387.451 209.129C388.656 210.359 390.102 211.327 391.7 211.97L395.65 231.23L399.65 205.04L384.7 204.82Z" fill="#37474F"/>
<path d="M382.61 196.25C382.61 196.25 381.61 204.94 388.86 208.33C390.294 209.083 391.82 209.645 393.4 210C393.4 210 399.33 245.36 400.4 248C401.47 250.64 417.4 280.8 417.4 280.8C417.4 280.8 423.7 282.12 425.02 277.21C425.02 277.21 423.63 270.77 421.87 263.74C420.39 257.82 418.65 251.12 415.6 247.84C414.431 246.62 413.788 244.99 413.81 243.3C413.94 237.55 414.2 225.48 414.25 222.23C414.33 217.91 415.94 204.14 413.16 198.58L404.58 190.74L382.61 196.25Z" fill="#455A64"/>
<path d="M376.66 147.74L370.2 143.9C370.2 143.9 366.09 138.71 362.76 134.09C359.43 129.47 358.03 127.09 358.03 127.09C359.077 125.496 359.684 123.654 359.79 121.75C359.79 118.97 359.64 117.65 360.16 116.62C360.68 115.59 360.16 114.5 358.77 114.94C357.38 115.38 356.35 118.37 356.77 120.32L349.01 124.82C349.01 124.82 350.3 128.27 352.08 129.88C352.08 129.88 359.19 147.01 361.97 149.79C364.75 152.57 369.61 156.34 369.61 156.34L376.66 147.74Z" fill="#945959"/>
<path d="M389.93 155.62L376.66 147.74C376.66 147.74 370.52 148.17 369.66 156.31L381.27 165.01L389.93 155.62Z" fill="#437CFD"/>
<path opacity="0.2" d="M389.93 155.62L376.66 147.74C376.66 147.74 370.52 148.17 369.66 156.31L381.27 165.01L389.93 155.62Z" fill="black"/>
<path d="M392.5 155.62L401.36 156.06L407.15 156.35L408.15 170.04C408.15 170.04 406.62 177.95 405.45 180.73C404.28 183.51 411.96 194.94 413.21 198.6C413.21 198.6 408.3 199.26 405.81 193.6C404.682 196.312 402.758 198.619 400.293 200.217C397.828 201.814 394.937 202.628 392 202.55C384.94 202.55 381 196.62 381 196.62L382.61 186.62C381.63 183.562 381.088 180.38 381 177.17C381 177.17 377 175.7 377.91 169.78C378.82 163.86 389.91 155.65 389.91 155.65L392.5 155.62Z" fill="#437CFD"/>
<path d="M410.6 133.51C410.6 133.51 415.67 129.32 420.05 134.09C426.35 140.96 412.73 154.45 424.81 154.74C424.81 154.74 423.42 156.35 418.73 156.35C414.04 156.35 410.02 151.5 410.82 142.58L410.6 133.51Z" fill="#263238"/>
<path d="M409 133.29C409 133.29 410.62 132.29 411.24 133.01C411.86 133.73 412.68 139.32 410.83 142.58C409.95 144.12 408.2 142 408.2 142L409 133.29Z" fill="#437CFD"/>
<path d="M381.83 134.09C381.83 134.09 381.9 139.88 378.17 138.27C378.477 139.038 379.018 139.69 379.716 140.133C380.414 140.576 381.234 140.789 382.06 140.74C384.11 140.74 385.29 138.74 385.29 137.17L381.83 134.09Z" fill="#263238"/>
<path d="M401.416 141.622C406.786 138.443 408.562 131.512 405.382 126.142C402.203 120.772 395.272 118.996 389.902 122.176C384.532 125.355 382.756 132.286 385.935 137.656C389.115 143.026 396.046 144.802 401.416 141.622Z" fill="#263238"/>
<path d="M410.16 137.17C410.16 143.41 404.59 151.34 398.35 151.34C396.866 151.341 395.397 151.05 394.026 150.483C392.655 149.917 391.41 149.085 390.36 148.037C389.311 146.988 388.478 145.743 387.91 144.373C387.342 143.002 387.05 141.533 387.05 140.05C387.05 133.81 392.11 126.7 398.35 126.7C404.59 126.7 410.16 128.82 410.16 137.17Z" fill="#263238"/>
<path d="M392.89 130.54C392.892 131.852 392.505 133.135 391.777 134.226C391.05 135.318 390.015 136.169 388.804 136.672C387.593 137.176 386.259 137.309 384.973 137.054C383.686 136.799 382.504 136.168 381.575 135.242C380.647 134.315 380.015 133.134 379.758 131.847C379.502 130.561 379.632 129.227 380.134 128.015C380.635 126.803 381.485 125.767 382.576 125.038C383.666 124.309 384.948 123.92 386.26 123.92C388.017 123.92 389.701 124.617 390.945 125.858C392.188 127.1 392.887 128.783 392.89 130.54Z" fill="#263238"/>
<path d="M392.5 149.54V155.62C392.5 155.62 386.82 161.33 392.35 161.83C397.88 162.33 401.35 156.06 401.35 156.06V144.47L392.5 149.54Z" fill="#945959"/>
<path d="M401.26 142.64V143C399.26 150.79 394.15 152.49 392.5 152.88L392.44 140.82H401.01L401.26 142.64Z" fill="#703838"/>
<path d="M394.1 125.29C391.266 125.473 388.616 126.756 386.714 128.865C384.812 130.974 383.81 133.742 383.92 136.58C383.82 145.21 385.14 151.79 389.61 152.06C394.08 152.33 404.07 148.3 404.54 137.06C405.01 125.82 397.29 125 394.1 125.29Z" fill="#945959"/>
<path d="M389.96 140.05L390.04 145.11L387.06 144.25L389.96 140.05Z" fill="#703838"/>
<path d="M394.41 139.91C394.41 140.106 394.352 140.297 394.244 140.46C394.137 140.623 393.983 140.751 393.803 140.828C393.624 140.905 393.425 140.928 393.233 140.893C393.04 140.858 392.862 140.768 392.72 140.633C392.579 140.498 392.48 140.325 392.436 140.134C392.392 139.943 392.404 139.744 392.473 139.561C392.541 139.377 392.661 139.218 392.819 139.102C392.976 138.987 393.165 138.92 393.36 138.91C393.495 138.903 393.631 138.924 393.758 138.971C393.885 139.018 394.001 139.091 394.1 139.185C394.198 139.278 394.276 139.391 394.329 139.515C394.383 139.64 394.41 139.774 394.41 139.91Z" fill="#263238"/>
<path d="M387.61 139.29C387.61 139.488 387.551 139.681 387.441 139.846C387.332 140.01 387.175 140.138 386.993 140.214C386.81 140.29 386.609 140.309 386.415 140.271C386.221 140.232 386.043 140.137 385.903 139.997C385.763 139.857 385.668 139.679 385.629 139.485C385.591 139.291 385.61 139.09 385.686 138.907C385.762 138.725 385.89 138.568 386.054 138.459C386.219 138.349 386.412 138.29 386.61 138.29C386.875 138.29 387.13 138.395 387.317 138.583C387.505 138.77 387.61 139.025 387.61 139.29Z" fill="#263238"/>
<path d="M385.29 137.17L387.29 135.94C387.29 135.94 386.51 135.15 385.74 135.64C385.52 135.821 385.36 136.063 385.28 136.336C385.2 136.609 385.203 136.899 385.29 137.17Z" fill="#437CFD"/>
<path d="M389.37 146.88C390.416 146.375 391.434 145.815 392.42 145.2C392.42 145.2 393.06 146.86 391.71 147.54C391.304 147.717 390.849 147.748 390.422 147.628C389.996 147.507 389.624 147.243 389.37 146.88Z" fill="#703838"/>
<path d="M385.29 137.17L387.29 135.94C387.29 135.94 386.51 135.15 385.74 135.64C385.52 135.821 385.36 136.063 385.28 136.336C385.2 136.609 385.203 136.899 385.29 137.17Z" fill="#263238"/>
<path d="M399.49 139.44C399.49 139.44 399.29 143.07 401.38 143.07H405.48V136.15C405.48 128.39 399.59 120.28 387.06 126.69C387.06 126.69 386.45 137.05 399.49 139.44Z" fill="#263238"/>
<path d="M401.07 143.23C401.043 142.439 401.197 141.652 401.52 140.93C401.677 140.48 401.962 140.086 402.341 139.796C402.72 139.506 403.175 139.334 403.65 139.3C406.09 139.3 406.39 141.61 406.35 142.45C406.248 143.744 405.646 144.948 404.671 145.807C403.697 146.665 402.427 147.111 401.13 147.05L401.07 143.23Z" fill="#945959"/>
<path d="M406.35 156.31C406.35 156.31 400.59 162.05 407.94 170.91C415.29 179.77 416.83 181.68 416.83 181.68C416.83 181.68 424.37 182.42 425.47 175.46C425.47 175.46 416.61 163.01 414.19 159.87C411.77 156.73 409.57 156.47 406.35 156.31Z" fill="#437CFD"/>
<path opacity="0.2" d="M406.35 156.31C406.35 156.31 400.59 162.05 407.94 170.91C415.29 179.77 416.83 181.68 416.83 181.68C416.83 181.68 424.37 182.42 425.47 175.46C425.47 175.46 416.61 163.01 414.19 159.87C411.77 156.73 409.57 156.47 406.35 156.31Z" fill="black"/>
<path opacity="0.3" d="M389.59 177.88C389.59 177.88 398.41 180.34 401.36 171.95C401.36 172 399.84 182.42 389.59 177.88Z" fill="black"/>
<path d="M424.39 206.21C424.39 206.21 422.99 207.03 422.66 209.96C422.56 210.8 421.02 212.67 421.25 213.14C421.48 213.61 423.02 214.25 424.68 211.5C424.981 212.895 425.001 214.337 424.74 215.74C424.29 217.91 423.51 220.69 426.34 220.08C429.17 219.47 433.34 217.23 432.68 213.01C432.07 208.94 431.73 205.64 431.73 205.64L424.39 206.21Z" fill="#945959"/>
<path d="M105.27 394.07L106.05 402.14C106.05 402.14 106.92 403.8 110.93 403.8C114.94 403.8 114.05 400.38 114.05 400.38L114.44 394.07H105.27Z" fill="#FFA8A7"/>
<path d="M117.3 312.38C117.3 316.57 116.91 357.47 116.88 360.21C116.885 360.307 116.885 360.403 116.88 360.5C116.72 362.78 114.74 390.82 114.45 394.07C114.45 394.07 109.67 397.71 105.28 394.07C105.28 394.07 104.1 384.18 103.71 381.25C103.32 378.32 101.85 365.25 103.71 360.94L98.9299 336.15V316.24L117.3 312.38Z" fill="#37474F"/>
<path d="M111.88 318.66C111.88 318.66 110.88 324.92 103.7 328.34L100.55 344.59L98.92 337V319.26L111.88 318.66Z" fill="#263238"/>
<path d="M74.61 400.38L73.83 406.38C73.83 406.38 75.92 411.83 82.3 409.2L83.47 402.96L74.61 400.38Z" fill="#FFA8A7"/>
<path d="M83.47 313.11C83.03 317.79 81.74 329.7 81.25 345.11C80.76 360.52 80.76 360.43 80.76 360.43C79.0051 364.207 77.8092 368.219 77.21 372.34C76.6 378.12 74.61 400.34 74.61 400.34C75.7207 401.523 77.1305 402.383 78.6902 402.83C80.2498 403.277 81.9014 403.295 83.47 402.88L95.25 365.88C95.5674 364.872 95.8114 363.843 95.98 362.8L101.75 326.43C101.75 326.43 111.81 325.07 114.05 312.08L83.47 313.11Z" fill="#37474F"/>
<path d="M120.52 284.33L131.86 293.41V280.23L127.84 276.13L120.52 284.33Z" fill="#F28F8F"/>
<path d="M109.46 263.76C112.149 263.56 114.816 264.369 116.94 266.03C120.45 268.81 127.84 276.13 127.84 276.13C127.569 278.068 126.729 279.882 125.426 281.342C124.122 282.802 122.415 283.842 120.52 284.33L113.27 279.14L109.46 263.76Z" fill="#437CFD"/>
<path opacity="0.2" d="M109.46 263.76C112.149 263.56 114.816 264.369 116.94 266.03C120.45 268.81 127.84 276.13 127.84 276.13C127.569 278.068 126.729 279.882 125.426 281.342C124.122 282.802 122.415 283.842 120.52 284.33L113.27 279.14L109.46 263.76Z" fill="white"/>
<path d="M94.74 263.83C94.74 263.83 87.28 264.58 83.91 265.31L82.67 278.77C82.67 278.77 85.29 293.77 85.29 295.88C85.29 297.99 83.47 313.11 83.47 313.11C83.47 313.11 88.62 316.48 103.61 316.48C108.452 316.327 113.171 314.914 117.3 312.38V282.47C117.3 276.65 115.03 267.47 109.46 263.76H104.88L94.74 263.83Z" fill="#437CFD"/>
<path opacity="0.2" d="M94.74 263.83C94.74 263.83 87.28 264.58 83.91 265.31L82.67 278.77C82.67 278.77 85.29 293.77 85.29 295.88C85.29 297.99 83.47 313.11 83.47 313.11C83.47 313.11 88.62 316.48 103.61 316.48C108.452 316.327 113.171 314.914 117.3 312.38V282.47C117.3 276.65 115.03 267.47 109.46 263.76H104.88L94.74 263.83Z" fill="black"/>
<path d="M136.15 304.91L131.86 303.06V258.59L136.15 260.44V304.91Z" fill="#437CFD"/>
<path opacity="0.6" d="M136.15 304.91L131.86 303.06V258.59L136.15 260.44V304.91Z" fill="black"/>
<path d="M236.47 202.4L136.15 260.44L131.86 258.59L232.17 200.55L236.47 202.4Z" fill="#437CFD"/>
<path opacity="0.4" d="M236.47 202.4L136.15 260.44L131.86 258.59L232.17 200.55L236.47 202.4Z" fill="black"/>
<path d="M236.47 246.87L136.15 304.91V260.44L236.47 202.4V246.87Z" fill="#437CFD"/>
<path opacity="0.3" d="M236.47 246.87L136.15 304.91V260.44L236.47 202.4V246.87Z" fill="black"/>
<path d="M170.753 257.211L166.811 259.477C166.739 258.93 166.592 258.492 166.37 258.163C166.149 257.827 165.864 257.596 165.516 257.471C165.168 257.346 164.766 257.327 164.31 257.416C163.86 257.502 163.371 257.697 162.843 258C161.889 258.548 161.058 259.299 160.35 260.253C159.642 261.199 159.093 262.303 158.703 263.565C158.313 264.821 158.118 266.185 158.118 267.659C158.118 269.174 158.313 270.335 158.703 271.142C159.099 271.946 159.651 272.407 160.359 272.526C161.067 272.645 161.886 272.437 162.816 271.903C163.338 271.603 163.821 271.246 164.265 270.832C164.715 270.414 165.114 269.953 165.462 269.448C165.81 268.937 166.098 268.394 166.325 267.82C166.559 267.243 166.721 266.645 166.811 266.026L170.753 263.781C170.651 264.816 170.396 265.903 169.988 267.044C169.586 268.175 169.043 269.293 168.359 270.399C167.681 271.494 166.871 272.52 165.93 273.476C164.994 274.423 163.935 275.235 162.753 275.914C161.109 276.859 159.639 277.275 158.343 277.162C157.054 277.045 156.034 276.389 155.284 275.194C154.54 273.995 154.168 272.24 154.168 269.929C154.168 267.611 154.546 265.422 155.302 263.362C156.058 261.301 157.084 259.473 158.379 257.877C159.675 256.274 161.133 255.007 162.753 254.076C163.821 253.463 164.811 253.067 165.723 252.889C166.64 252.707 167.453 252.745 168.161 253.003C168.869 253.253 169.445 253.728 169.889 254.428C170.339 255.124 170.627 256.052 170.753 257.211ZM183.545 248.531C183.473 247.735 183.164 247.262 182.618 247.112C182.072 246.962 181.331 247.156 180.395 247.694C179.759 248.06 179.223 248.472 178.785 248.932C178.347 249.384 178.011 249.857 177.777 250.351C177.549 250.842 177.435 251.316 177.435 251.773C177.423 252.16 177.492 252.453 177.642 252.65C177.798 252.844 178.011 252.968 178.281 253.02C178.551 253.065 178.863 253.063 179.217 253.011C179.57 252.953 179.948 252.861 180.35 252.733L182.006 252.238C182.81 251.984 183.548 251.837 184.22 251.797C184.892 251.756 185.474 251.847 185.966 252.07C186.458 252.292 186.839 252.668 187.109 253.198C187.385 253.725 187.526 254.429 187.532 255.311C187.526 256.616 187.238 257.909 186.668 259.191C186.104 260.464 185.288 261.669 184.22 262.809C183.158 263.938 181.877 264.934 180.377 265.796C178.89 266.651 177.594 267.133 176.49 267.241C175.392 267.346 174.534 267.061 173.916 266.385C173.304 265.699 172.983 264.6 172.953 263.088L176.724 260.921C176.766 261.609 176.943 262.103 177.255 262.401C177.573 262.689 177.996 262.802 178.524 262.741C179.058 262.669 179.66 262.44 180.332 262.054C180.992 261.675 181.565 261.235 182.051 260.734C182.543 260.23 182.924 259.703 183.194 259.153C183.464 258.604 183.599 258.073 183.599 257.561C183.599 257.084 183.476 256.753 183.23 256.569C182.99 256.382 182.636 256.308 182.168 256.349C181.706 256.386 181.139 256.504 180.467 256.704L178.461 257.276C176.907 257.733 175.68 257.756 174.78 257.346C173.88 256.936 173.433 255.944 173.439 254.37C173.433 253.086 173.73 251.791 174.33 250.485C174.936 249.175 175.767 247.946 176.823 246.8C177.879 245.653 179.079 244.694 180.422 243.922C181.79 243.135 182.984 242.719 184.004 242.673C185.03 242.623 185.828 242.915 186.398 243.549C186.968 244.184 187.262 245.129 187.28 246.385L183.545 248.531ZM200.15 238.988C200.078 238.192 199.769 237.719 199.224 237.569C198.678 237.419 197.937 237.613 197.001 238.151C196.365 238.517 195.828 238.929 195.39 239.388C194.952 239.841 194.616 240.314 194.382 240.808C194.154 241.299 194.04 241.773 194.04 242.229C194.028 242.617 194.097 242.909 194.247 243.107C194.403 243.301 194.616 243.424 194.886 243.477C195.156 243.522 195.468 243.519 195.822 243.468C196.176 243.41 196.554 243.317 196.956 243.19L198.612 242.695C199.415 242.441 200.153 242.293 200.825 242.253C201.497 242.213 202.079 242.304 202.571 242.527C203.063 242.749 203.444 243.125 203.714 243.655C203.99 244.181 204.131 244.886 204.137 245.768C204.131 247.072 203.843 248.366 203.273 249.648C202.709 250.92 201.893 252.126 200.825 253.266C199.763 254.395 198.483 255.391 196.983 256.252C195.495 257.108 194.199 257.589 193.095 257.698C191.997 257.803 191.139 257.518 190.521 256.842C189.91 256.155 189.589 255.056 189.559 253.544L193.329 251.377C193.371 252.066 193.548 252.559 193.86 252.857C194.178 253.145 194.601 253.259 195.129 253.197C195.663 253.126 196.266 252.897 196.938 252.511C197.598 252.131 198.171 251.691 198.657 251.191C199.149 250.687 199.529 250.16 199.799 249.61C200.069 249.061 200.204 248.53 200.204 248.018C200.204 247.54 200.081 247.21 199.835 247.026C199.595 246.838 199.242 246.765 198.774 246.806C198.312 246.843 197.745 246.961 197.073 247.16L195.066 247.732C193.512 248.19 192.285 248.213 191.385 247.803C190.486 247.393 190.039 246.401 190.045 244.827C190.039 243.543 190.336 242.248 190.935 240.941C191.541 239.631 192.372 238.403 193.428 237.257C194.484 236.11 195.684 235.151 197.028 234.378C198.396 233.592 199.589 233.176 200.609 233.129C201.635 233.08 202.433 233.372 203.003 234.006C203.573 234.64 203.867 235.585 203.885 236.841L200.15 238.988Z" fill="white"/>
<path d="M114 235.46C114 235.46 119.83 240.58 114.76 251.99L108.83 236.57L114 235.46Z" fill="#263238"/>
<path d="M94.74 263.83C94.74 263.83 96.74 269.18 102.31 269.18C107.88 269.18 104.88 263.76 104.88 263.76L94.74 263.83Z" fill="#FFA8A7"/>
<path d="M94.74 263.83L104.88 263.76V248.25H94.74V263.83Z" fill="#FFA8A7"/>
<path d="M104.88 263.14C101.14 261.69 96.39 259.29 96.39 257L95.16 249.29H104.88V263.14Z" fill="#F28F8F"/>
<path d="M102.55 232.3C106.13 232.3 113.73 234.3 114.61 243.66C115.49 253.02 114.12 260.98 109.81 260.98C101.35 260.98 93.23 259.9 93.16 246.06C93.1 233.85 99.06 232.3 102.55 232.3Z" fill="#FFA8A7"/>
<path d="M94.75 254.26L96.12 250C96.2232 250.088 96.3494 250.144 96.4836 250.163C96.6178 250.181 96.7545 250.161 96.8775 250.104C97.0005 250.047 97.1047 249.956 97.1778 249.842C97.2509 249.728 97.2898 249.595 97.29 249.46V241.91C97.29 241.91 100.81 240.91 100.44 237.96C100.44 237.96 102.24 239.57 109.14 239.57C116.04 239.57 117.72 233.72 117.03 230.46C117.03 230.46 115.75 231.78 112.1 231.78C108.45 231.78 93.26 227.2 92.87 236.38C92.87 236.38 91.58 234.5 89.51 236.38L92.18 238C92.18 238 89.02 237.9 89.51 242.53C89.9 246.19 91.42 253.12 92.05 255.89C92.2283 256.657 92.6889 257.328 93.34 257.77L94.75 258.72V254.26Z" fill="#263238"/>
<path d="M107.93 246.47V251.99L111.16 250.99L107.93 246.47Z" fill="#F28F8F"/>
<path d="M102.19 247.42C102.188 247.644 102.253 247.864 102.376 248.052C102.5 248.239 102.676 248.385 102.883 248.472C103.09 248.559 103.318 248.582 103.538 248.539C103.758 248.495 103.96 248.388 104.119 248.229C104.278 248.07 104.385 247.868 104.429 247.648C104.472 247.428 104.449 247.2 104.362 246.993C104.275 246.786 104.129 246.61 103.942 246.486C103.754 246.363 103.534 246.298 103.31 246.3C103.163 246.3 103.017 246.329 102.881 246.385C102.745 246.442 102.622 246.524 102.518 246.628C102.414 246.732 102.332 246.856 102.275 246.991C102.219 247.127 102.19 247.273 102.19 247.42Z" fill="#263238"/>
<path d="M110.6 246.64C110.6 246.863 110.666 247.082 110.79 247.268C110.915 247.454 111.091 247.598 111.298 247.684C111.504 247.77 111.731 247.792 111.95 247.748C112.17 247.705 112.371 247.597 112.529 247.439C112.687 247.281 112.795 247.08 112.838 246.86C112.882 246.641 112.859 246.414 112.774 246.208C112.688 246.001 112.544 245.825 112.358 245.7C112.172 245.576 111.953 245.51 111.73 245.51C111.43 245.51 111.143 245.629 110.931 245.841C110.719 246.053 110.6 246.34 110.6 246.64Z" fill="#263238"/>
<path d="M113.1 244.29L110.9 242.99C110.9 242.99 111.74 242.11 112.58 242.64C112.823 242.83 113.003 243.09 113.096 243.384C113.188 243.679 113.19 243.995 113.1 244.29Z" fill="#263238"/>
<path d="M101 245.11L103.19 243.8C103.19 243.8 102.35 242.92 101.51 243.45C101.268 243.643 101.09 243.905 100.999 244.201C100.908 244.497 100.908 244.814 101 245.11Z" fill="#263238"/>
<path d="M109.45 254.22C108.387 254.294 107.331 254.009 106.45 253.41C106.45 253.41 106.24 255.01 107.58 255.31C107.969 255.368 108.367 255.292 108.706 255.094C109.046 254.895 109.309 254.587 109.45 254.22Z" fill="#F28F8F"/>
<path d="M95.58 248.45C96.85 250.66 96.52 253.34 94.75 254.26C93.6 254.85 90.23 253.58 88.96 251.37C87.69 249.16 88.4 247.27 90.13 246.27C91.86 245.27 94.3 246.24 95.58 248.45Z" fill="#FFA8A7"/>
<path d="M96.22 250.09L92.33 245.87L95.13 244.19L96.22 250.09Z" fill="#253239"/>
<path d="M102 281.41L107.35 287.34C107.35 287.34 111.72 286.72 116.79 286.46C120.813 286.039 124.803 285.34 128.73 284.37C128.73 284.37 129.73 280.09 131.87 278.37V281.72C131.87 281.72 134.74 282.72 136.16 281.3C138.61 278.89 140.8 276.67 140.8 281.72C140.8 288.77 137.8 291.63 129.7 291.48C129.7 291.48 109.25 300.05 104.35 299.09C101.35 298.52 93.11 290.75 93.11 290.75L102 281.41Z" fill="#FFA8A7"/>
<path d="M80 267.26C83.44 263.76 87.37 265.39 90.82 268.84C94.27 272.29 102 281.41 102 281.41C102 281.41 101.22 288.52 93.11 290.78C93.11 290.78 82.17 279.39 80.77 277.84C78.23 275 76.74 270.6 80 267.26Z" fill="#437CFD"/>
<path opacity="0.2" d="M80 267.26C83.44 263.76 87.37 265.39 90.82 268.84C94.27 272.29 102 281.41 102 281.41C102 281.41 101.22 288.52 93.11 290.78C93.11 290.78 82.17 279.39 80.77 277.84C78.23 275 76.74 270.6 80 267.26Z" fill="white"/>
<path d="M152.56 295.44C152.648 294.306 152.966 293.203 153.496 292.197C154.025 291.191 154.755 290.304 155.64 289.59C160.25 286.07 160.06 289.59 160.17 291.04C160.28 292.49 155.9 297.64 151.1 296.28L152.56 295.44Z" fill="#FFA8A7"/>
<path d="M73.83 406.34C74.0758 406.887 74.4141 407.388 74.83 407.82C74.9296 407.904 75.0503 407.96 75.179 407.981C75.3077 408.001 75.4397 407.987 75.5609 407.939C75.6821 407.89 75.7878 407.81 75.8669 407.707C75.946 407.603 75.9955 407.48 76.01 407.35C76.0219 407.019 76.1206 406.697 76.2961 406.416C76.4716 406.135 76.7178 405.906 77.01 405.75C77.7 405.46 83.21 405.36 83.26 406.48C83.2625 407.327 83.1753 408.172 83 409C83 409 83.89 416.58 85.58 419.58C87.27 422.58 90.03 427.43 84.22 428.85C78.41 430.27 74.02 427.19 73.82 423.09C73.62 418.99 73.72 416.09 73.33 415.38C72.94 414.67 70.89 414.3 71.67 410.55C72.45 406.8 72.57 404.55 74.07 404.43L73.83 406.34Z" fill="#455A64"/>
<path d="M77.79 413.3C77.7056 413.303 77.6218 413.284 77.5467 413.245C77.4715 413.207 77.4072 413.15 77.36 413.08C77.2809 412.967 77.2491 412.827 77.2715 412.691C77.294 412.554 77.3688 412.432 77.48 412.35C78.3987 411.773 79.4474 411.434 80.5304 411.366C81.6133 411.298 82.6961 411.502 83.68 411.96C83.7456 411.988 83.8052 412.028 83.8553 412.078C83.9054 412.129 83.9451 412.189 83.972 412.255C83.999 412.321 84.0126 412.391 84.0123 412.463C84.0119 412.534 83.9976 412.604 83.97 412.67C83.9424 412.736 83.9022 412.795 83.8516 412.845C83.801 412.895 83.741 412.935 83.6751 412.962C83.6091 412.989 83.5385 413.003 83.4673 413.002C83.3961 413.002 83.3256 412.988 83.26 412.96C82.4391 412.579 81.5372 412.407 80.6337 412.457C79.7303 412.508 78.8532 412.78 78.08 413.25C77.9902 413.294 77.8895 413.312 77.79 413.3Z" fill="#EBEBEB"/>
<path d="M78.65 417C78.5662 416.999 78.4837 416.979 78.4091 416.941C78.3344 416.903 78.2697 416.848 78.22 416.78C78.142 416.665 78.1118 416.525 78.1361 416.388C78.1604 416.252 78.2372 416.131 78.35 416.05C79.2676 415.47 80.3159 415.13 81.3991 415.06C82.4822 414.99 83.5656 415.193 84.5501 415.65C84.677 415.709 84.7761 415.815 84.8265 415.945C84.8768 416.076 84.8745 416.221 84.82 416.35C84.7613 416.477 84.6547 416.576 84.5236 416.624C84.3925 416.673 84.2474 416.668 84.1201 416.61C83.3014 416.228 82.4007 416.054 81.4986 416.105C80.5964 416.155 79.7208 416.428 78.95 416.9C78.8646 416.967 78.7586 417.002 78.65 417Z" fill="#EBEBEB"/>
<path d="M80 420.65C79.9158 420.652 79.8324 420.633 79.7573 420.594C79.6823 420.556 79.6179 420.499 79.57 420.43C79.4919 420.315 79.4618 420.175 79.4861 420.038C79.5104 419.902 79.5872 419.781 79.7 419.7C80.6188 419.123 81.6675 418.784 82.7504 418.716C83.8334 418.648 84.9162 418.852 85.9 419.31C85.9634 419.337 86.0207 419.377 86.0687 419.426C86.1167 419.476 86.1543 419.534 86.1795 419.598C86.2046 419.663 86.2167 419.731 86.2151 419.8C86.2135 419.869 86.1981 419.937 86.17 420C86.1111 420.125 86.0069 420.222 85.8786 420.272C85.7504 420.322 85.6078 420.321 85.48 420.27C84.659 419.89 83.7571 419.718 82.8538 419.769C81.9506 419.819 81.0736 420.091 80.3 420.56C80.2114 420.62 80.1068 420.651 80 420.65Z" fill="#EBEBEB"/>
<path d="M106.05 402.14C107.085 402.835 108.314 403.185 109.56 403.14C109.56 403.14 108.97 400.83 110.68 400.05C112.39 399.27 115.12 398.24 115.68 399.17C116.075 400.234 116.291 401.356 116.32 402.49C116.32 402.49 120.39 406.18 123.41 407.22C126.43 408.26 130.41 409.32 130.03 412.11C129.65 414.9 125.15 418.94 119.03 416.16C112.91 413.38 111.81 413.28 109.85 412.98C107.89 412.68 104.24 412.84 104.39 409.57C104.54 406.3 104.26 400.89 105.89 400.45L106.05 402.14Z" fill="#455A64"/>
<path d="M113.06 407.14C113 407.149 112.94 407.149 112.88 407.14C112.749 407.093 112.643 406.996 112.583 406.87C112.523 406.745 112.515 406.601 112.56 406.47C112.961 405.532 113.608 404.718 114.431 404.115C115.254 403.512 116.224 403.14 117.24 403.04C117.354 403.055 117.46 403.108 117.541 403.19C117.622 403.272 117.674 403.379 117.688 403.493C117.701 403.608 117.677 403.724 117.617 403.823C117.558 403.922 117.467 403.998 117.36 404.04C116.538 404.12 115.752 404.416 115.083 404.9C114.414 405.383 113.884 406.035 113.55 406.79C113.512 406.89 113.446 406.977 113.358 407.04C113.271 407.102 113.167 407.137 113.06 407.14Z" fill="#EBEBEB"/>
<path d="M116.18 409.2H116.01C115.945 409.179 115.885 409.144 115.833 409.099C115.782 409.054 115.74 408.999 115.71 408.938C115.68 408.876 115.663 408.809 115.66 408.741C115.656 408.673 115.667 408.604 115.69 408.54C116.056 407.603 116.674 406.785 117.475 406.177C118.276 405.568 119.229 405.192 120.23 405.09C120.345 405.104 120.452 405.155 120.535 405.237C120.617 405.318 120.67 405.425 120.685 405.539C120.7 405.654 120.676 405.771 120.617 405.87C120.558 405.97 120.468 406.047 120.36 406.09C119.558 406.176 118.793 406.475 118.146 406.957C117.498 407.439 116.992 408.086 116.68 408.83C116.646 408.936 116.58 409.03 116.49 409.096C116.4 409.163 116.292 409.199 116.18 409.2Z" fill="#EBEBEB"/>
<path d="M120.12 410.83H120C119.864 410.803 119.744 410.725 119.666 410.611C119.587 410.497 119.556 410.356 119.58 410.22C119.77 409.239 120.309 408.361 121.099 407.748C121.888 407.136 122.873 406.831 123.87 406.89C124.009 406.895 124.14 406.955 124.235 407.056C124.331 407.157 124.383 407.291 124.38 407.43C124.38 407.5 124.366 407.568 124.338 407.632C124.311 407.696 124.271 407.754 124.22 407.802C124.17 407.849 124.11 407.886 124.044 407.91C123.979 407.934 123.909 407.944 123.84 407.94C123.095 407.896 122.358 408.121 121.765 408.574C121.172 409.027 120.762 409.679 120.61 410.41C120.586 410.524 120.525 410.627 120.436 410.703C120.348 410.779 120.236 410.824 120.12 410.83Z" fill="#EBEBEB"/>
<path d="M189.51 83.24L181 88.08V85.08C181 84.86 181 84.65 181 84.44C181 84.23 181 84.03 181 83.83V83.76C180.69 79.76 177.67 78.24 174 80.37C172.331 81.3852 170.901 82.7498 169.81 84.37C169 79 164.56 77 159.22 80.09C153.28 83.52 148.47 91.85 148.47 98.7V105.15C148.47 105.66 148.337 106.162 148.082 106.604C147.828 107.046 147.461 107.414 147.02 107.67L142.02 110.61C140.934 111.245 140.034 112.153 139.41 113.245C138.785 114.336 138.458 115.572 138.46 116.83C138.47 117.347 138.613 117.853 138.875 118.298C139.138 118.743 139.511 119.113 139.959 119.372C140.407 119.63 140.914 119.769 141.431 119.774C141.948 119.779 142.457 119.65 142.91 119.4L189.38 92.56C190.609 91.8493 191.63 90.8291 192.343 89.601C193.055 88.3729 193.433 86.9797 193.44 85.56C193.446 85.0969 193.33 84.6405 193.103 84.2369C192.876 83.8333 192.546 83.4967 192.147 83.2613C191.748 83.0259 191.295 82.8999 190.831 82.8962C190.368 82.8925 189.912 83.0111 189.51 83.24Z" fill="#E6E6E6"/>
<path d="M112.33 93.24L106 96.82V94.59C106 94.43 106 94.27 106 94.12C106 93.97 106 93.81 106 93.67C105.77 90.67 103.54 89.59 100.81 91.16C99.5743 91.9237 98.5199 92.9474 97.72 94.16C97.1 90.16 93.83 88.71 89.88 90.99C87.5568 92.4936 85.6215 94.5244 84.2313 96.9172C82.8412 99.31 82.0356 101.997 81.88 104.76V109.53C81.8801 109.907 81.7814 110.277 81.5936 110.603C81.4058 110.929 81.1356 111.201 80.81 111.39L77.11 113.56C76.3066 114.032 75.6404 114.706 75.1773 115.514C74.7143 116.323 74.4705 117.238 74.47 118.17C74.4709 118.556 74.5732 118.934 74.7667 119.268C74.9601 119.602 75.238 119.879 75.5722 120.071C75.9065 120.264 76.2855 120.365 76.6713 120.365C77.057 120.365 77.4359 120.263 77.77 120.07L112.15 100.21C113.063 99.6831 113.82 98.925 114.347 98.0122C114.874 97.0993 115.151 96.0639 115.15 95.01C115.141 94.6807 115.051 94.3586 114.888 94.0725C114.724 93.7864 114.493 93.545 114.214 93.3699C113.935 93.1947 113.617 93.0912 113.288 93.0686C112.96 93.0459 112.63 93.1048 112.33 93.24Z" fill="#E6E6E6"/>
</svg>
